# xmcd CD database file
#
# Track frame offsets:
#	150
#	17901
#	30654
#	48120
#	66789
#	79730
#	96504
#	116514
#	132731
#	153092
#	168697
#	184552
#	201670
#
# Disc length: 2929 seconds
#
# Revision: 1
# Processed by: cddbd v1.4PL0 Copyright (c) Steve Scherf et al.
# Submitted via: CDex 1.50Beta7
#
DISCID=b30b6f0d
DTITLE=Κατσιμίχας Χ. and Π. - 20 Χρόνια LIVE [CD1)
DYEAR=2001
DGENRE=Other
TTITLE0=Εξέγερση
TTITLE1=Όμορφη μέρα
TTITLE2=Νύχτωσε νύχτα
TTITLE3=Ανόητες αγάπες
TTITLE4=Προσωπικές οπτασίες
TTITLE5=Όσο βαρούν τα σίδερα
TTITLE6=Το υπόγειο
TTITLE7=Σου άξιζε μια καλύτερη αγγαλιά
TTITLE8=Το δωμάτιο
TTITLE9=Απόψε κάνεις μπάμ
TTITLE10=Για κοίτα κόσμε ένα κορμί
TTITLE11=Γυάλινα Γιάννενα 
TTITLE12=Ο Μπερμπίλης
EXTD=YEAR: 2001
EXTT0=
EXTT1=
EXTT2=
EXTT3=
EXTT4=
EXTT5=
EXTT6=
EXTT7=
EXTT8=
EXTT9=
EXTT10=
EXTT11=
EXTT12=
PLAYORDER=
